<mxfile host="app.diagrams.net" modified="2021-09-18T03:01:05.341Z" agent="5.0 (Windows NT 10.0; Win64; x64) AppleWebKit/537.36 (KHTML, like Gecko) Chrome/93.0.4577.82 Safari/537.36" etag="NAYFO1vFhK9miCAN22Iq" version="15.1.0" type="github">
  <diagram id="L-Dq_f3NtnT8TjF4tSt6" name="Page-1">
    <mxGraphModel dx="868" dy="520" grid="1" gridSize="10" guides="1" tooltips="1" connect="1" arrows="1" fold="1" page="1" pageScale="1" pageWidth="827" pageHeight="1169" math="0" shadow="0">
      <root>
        <object label="" id="0">
          <mxCell />
        </object>
        <mxCell id="1" parent="0" />
        <mxCell id="piJNGjqWp0yB-HxjVkC0-1" value="người bán" style="shape=umlActor;verticalLabelPosition=bottom;verticalAlign=top;html=1;outlineConnect=0;" vertex="1" parent="1">
          <mxGeometry x="40" y="440" width="30" height="60" as="geometry" />
        </mxCell>
        <mxCell id="piJNGjqWp0yB-HxjVkC0-2" value="người mua" style="shape=umlActor;verticalLabelPosition=bottom;verticalAlign=top;html=1;outlineConnect=0;" vertex="1" parent="1">
          <mxGeometry x="30" y="660" width="30" height="60" as="geometry" />
        </mxCell>
        <mxCell id="piJNGjqWp0yB-HxjVkC0-4" value="Khách thăm" style="shape=umlActor;verticalLabelPosition=bottom;verticalAlign=top;html=1;outlineConnect=0;" vertex="1" parent="1">
          <mxGeometry x="40" y="910" width="30" height="60" as="geometry" />
        </mxCell>
        <mxCell id="piJNGjqWp0yB-HxjVkC0-5" value="Quản trị viên" style="shape=umlActor;verticalLabelPosition=bottom;verticalAlign=top;html=1;outlineConnect=0;" vertex="1" parent="1">
          <mxGeometry x="770" y="660" width="30" height="60" as="geometry" />
        </mxCell>
        <mxCell id="piJNGjqWp0yB-HxjVkC0-6" value="Đăng nhập" style="ellipse;whiteSpace=wrap;html=1;" vertex="1" parent="1">
          <mxGeometry x="400" y="500" width="120" height="60" as="geometry" />
        </mxCell>
        <mxCell id="piJNGjqWp0yB-HxjVkC0-10" value="Thêm sản phẩm" style="ellipse;whiteSpace=wrap;html=1;" vertex="1" parent="1">
          <mxGeometry x="220" y="330" width="120" height="60" as="geometry" />
        </mxCell>
        <mxCell id="piJNGjqWp0yB-HxjVkC0-12" value="Thống kê" style="ellipse;whiteSpace=wrap;html=1;" vertex="1" parent="1">
          <mxGeometry x="300" y="410" width="120" height="60" as="geometry" />
        </mxCell>
        <mxCell id="piJNGjqWp0yB-HxjVkC0-13" value="Quản lý đơn hàng" style="ellipse;whiteSpace=wrap;html=1;" vertex="1" parent="1">
          <mxGeometry x="230" y="510" width="120" height="60" as="geometry" />
        </mxCell>
        <mxCell id="piJNGjqWp0yB-HxjVkC0-16" value="Bình luân đánh giá sản phẩm" style="ellipse;whiteSpace=wrap;html=1;" vertex="1" parent="1">
          <mxGeometry x="290" y="610" width="120" height="60" as="geometry" />
        </mxCell>
        <mxCell id="piJNGjqWp0yB-HxjVkC0-17" value="Báo cáo sản phẩm" style="ellipse;whiteSpace=wrap;html=1;" vertex="1" parent="1">
          <mxGeometry x="340" y="680" width="120" height="60" as="geometry" />
        </mxCell>
        <mxCell id="piJNGjqWp0yB-HxjVkC0-20" value="" style="endArrow=none;html=1;entryX=0.033;entryY=0.7;entryDx=0;entryDy=0;entryPerimeter=0;" edge="1" parent="1" source="piJNGjqWp0yB-HxjVkC0-2" target="piJNGjqWp0yB-HxjVkC0-6">
          <mxGeometry width="50" height="50" relative="1" as="geometry">
            <mxPoint x="390" y="690" as="sourcePoint" />
            <mxPoint x="440" y="640" as="targetPoint" />
          </mxGeometry>
        </mxCell>
        <mxCell id="piJNGjqWp0yB-HxjVkC0-21" value="" style="endArrow=none;html=1;entryX=0.025;entryY=0.267;entryDx=0;entryDy=0;entryPerimeter=0;" edge="1" parent="1" source="piJNGjqWp0yB-HxjVkC0-1" target="piJNGjqWp0yB-HxjVkC0-6">
          <mxGeometry width="50" height="50" relative="1" as="geometry">
            <mxPoint x="390" y="690" as="sourcePoint" />
            <mxPoint x="440" y="640" as="targetPoint" />
          </mxGeometry>
        </mxCell>
        <mxCell id="piJNGjqWp0yB-HxjVkC0-22" value="" style="endArrow=none;html=1;entryX=1;entryY=0.5;entryDx=0;entryDy=0;" edge="1" parent="1" target="piJNGjqWp0yB-HxjVkC0-6">
          <mxGeometry width="50" height="50" relative="1" as="geometry">
            <mxPoint x="770" y="690" as="sourcePoint" />
            <mxPoint x="440" y="640" as="targetPoint" />
          </mxGeometry>
        </mxCell>
        <mxCell id="piJNGjqWp0yB-HxjVkC0-24" value="" style="endArrow=none;html=1;entryX=0;entryY=0.5;entryDx=0;entryDy=0;" edge="1" parent="1" source="piJNGjqWp0yB-HxjVkC0-1" target="piJNGjqWp0yB-HxjVkC0-12">
          <mxGeometry width="50" height="50" relative="1" as="geometry">
            <mxPoint x="390" y="690" as="sourcePoint" />
            <mxPoint x="440" y="640" as="targetPoint" />
          </mxGeometry>
        </mxCell>
        <mxCell id="piJNGjqWp0yB-HxjVkC0-25" value="" style="endArrow=none;html=1;entryX=0;entryY=0.5;entryDx=0;entryDy=0;" edge="1" parent="1" target="piJNGjqWp0yB-HxjVkC0-13">
          <mxGeometry width="50" height="50" relative="1" as="geometry">
            <mxPoint x="70" y="480" as="sourcePoint" />
            <mxPoint x="440" y="640" as="targetPoint" />
          </mxGeometry>
        </mxCell>
        <mxCell id="piJNGjqWp0yB-HxjVkC0-26" value="" style="endArrow=none;html=1;entryX=0;entryY=0.5;entryDx=0;entryDy=0;" edge="1" parent="1" target="piJNGjqWp0yB-HxjVkC0-16">
          <mxGeometry width="50" height="50" relative="1" as="geometry">
            <mxPoint x="60" y="690" as="sourcePoint" />
            <mxPoint x="440" y="640" as="targetPoint" />
          </mxGeometry>
        </mxCell>
        <mxCell id="piJNGjqWp0yB-HxjVkC0-27" value="" style="endArrow=none;html=1;entryX=0;entryY=0.5;entryDx=0;entryDy=0;" edge="1" parent="1" target="piJNGjqWp0yB-HxjVkC0-17">
          <mxGeometry width="50" height="50" relative="1" as="geometry">
            <mxPoint x="60" y="690" as="sourcePoint" />
            <mxPoint x="440" y="640" as="targetPoint" />
          </mxGeometry>
        </mxCell>
        <mxCell id="piJNGjqWp0yB-HxjVkC0-28" value="" style="endArrow=none;html=1;entryX=0.033;entryY=0.683;entryDx=0;entryDy=0;entryPerimeter=0;exitX=1;exitY=0.3333333333333333;exitDx=0;exitDy=0;exitPerimeter=0;" edge="1" parent="1" source="piJNGjqWp0yB-HxjVkC0-4" target="piJNGjqWp0yB-HxjVkC0-30">
          <mxGeometry width="50" height="50" relative="1" as="geometry">
            <mxPoint x="160" y="910" as="sourcePoint" />
            <mxPoint x="440" y="840" as="targetPoint" />
          </mxGeometry>
        </mxCell>
        <mxCell id="piJNGjqWp0yB-HxjVkC0-30" value="Xem sản phẩm" style="ellipse;whiteSpace=wrap;html=1;" vertex="1" parent="1">
          <mxGeometry x="230" y="810" width="120" height="60" as="geometry" />
        </mxCell>
        <mxCell id="piJNGjqWp0yB-HxjVkC0-31" value="TÌm kiếm sản phẩm" style="ellipse;whiteSpace=wrap;html=1;" vertex="1" parent="1">
          <mxGeometry x="300" y="930" width="120" height="60" as="geometry" />
        </mxCell>
        <mxCell id="piJNGjqWp0yB-HxjVkC0-32" value="" style="endArrow=none;html=1;exitX=0;exitY=0.5;exitDx=0;exitDy=0;" edge="1" parent="1" source="piJNGjqWp0yB-HxjVkC0-30" target="piJNGjqWp0yB-HxjVkC0-2">
          <mxGeometry width="50" height="50" relative="1" as="geometry">
            <mxPoint x="390" y="890" as="sourcePoint" />
            <mxPoint x="160" y="690" as="targetPoint" />
          </mxGeometry>
        </mxCell>
        <mxCell id="piJNGjqWp0yB-HxjVkC0-34" value="" style="endArrow=none;html=1;exitX=-0.017;exitY=0.383;exitDx=0;exitDy=0;exitPerimeter=0;" edge="1" parent="1" source="piJNGjqWp0yB-HxjVkC0-31" target="piJNGjqWp0yB-HxjVkC0-2">
          <mxGeometry width="50" height="50" relative="1" as="geometry">
            <mxPoint x="267.96000000000004" y="892.98" as="sourcePoint" />
            <mxPoint x="160" y="690" as="targetPoint" />
            <Array as="points" />
          </mxGeometry>
        </mxCell>
        <mxCell id="piJNGjqWp0yB-HxjVkC0-36" value="Đăng kí" style="ellipse;whiteSpace=wrap;html=1;" vertex="1" parent="1">
          <mxGeometry x="280" y="1030" width="120" height="60" as="geometry" />
        </mxCell>
        <mxCell id="piJNGjqWp0yB-HxjVkC0-37" value="" style="endArrow=none;html=1;exitX=0;exitY=0.5;exitDx=0;exitDy=0;" edge="1" parent="1" source="piJNGjqWp0yB-HxjVkC0-36" target="piJNGjqWp0yB-HxjVkC0-4">
          <mxGeometry width="50" height="50" relative="1" as="geometry">
            <mxPoint x="390" y="890" as="sourcePoint" />
            <mxPoint x="440" y="840" as="targetPoint" />
          </mxGeometry>
        </mxCell>
        <mxCell id="piJNGjqWp0yB-HxjVkC0-38" value="" style="endArrow=none;html=1;entryX=0.008;entryY=0.633;entryDx=0;entryDy=0;entryPerimeter=0;" edge="1" parent="1" source="piJNGjqWp0yB-HxjVkC0-4" target="piJNGjqWp0yB-HxjVkC0-31">
          <mxGeometry width="50" height="50" relative="1" as="geometry">
            <mxPoint x="390" y="890" as="sourcePoint" />
            <mxPoint x="440" y="840" as="targetPoint" />
          </mxGeometry>
        </mxCell>
        <mxCell id="piJNGjqWp0yB-HxjVkC0-39" value="" style="endArrow=none;html=1;startArrow=none;" edge="1" parent="1" source="piJNGjqWp0yB-HxjVkC0-41" target="piJNGjqWp0yB-HxjVkC0-2">
          <mxGeometry width="50" height="50" relative="1" as="geometry">
            <mxPoint x="440" y="770" as="sourcePoint" />
            <mxPoint x="170" y="690" as="targetPoint" />
          </mxGeometry>
        </mxCell>
        <mxCell id="piJNGjqWp0yB-HxjVkC0-40" value="Thanh toán" style="ellipse;whiteSpace=wrap;html=1;" vertex="1" parent="1">
          <mxGeometry x="460" y="750" width="120" height="60" as="geometry" />
        </mxCell>
        <mxCell id="piJNGjqWp0yB-HxjVkC0-43" value="" style="endArrow=none;html=1;exitX=1;exitY=0.3333333333333333;exitDx=0;exitDy=0;exitPerimeter=0;entryX=-0.025;entryY=0.65;entryDx=0;entryDy=0;entryPerimeter=0;" edge="1" parent="1" source="piJNGjqWp0yB-HxjVkC0-1" target="piJNGjqWp0yB-HxjVkC0-10">
          <mxGeometry width="50" height="50" relative="1" as="geometry">
            <mxPoint x="390" y="490" as="sourcePoint" />
            <mxPoint x="440" y="440" as="targetPoint" />
          </mxGeometry>
        </mxCell>
        <mxCell id="piJNGjqWp0yB-HxjVkC0-41" value="Quản lý giỏ hàng" style="ellipse;whiteSpace=wrap;html=1;" vertex="1" parent="1">
          <mxGeometry x="300" y="750" width="120" height="60" as="geometry" />
        </mxCell>
        <mxCell id="piJNGjqWp0yB-HxjVkC0-45" value="&amp;lt;&amp;lt;extend&amp;gt;&amp;gt;" style="endArrow=none;dashed=1;html=1;exitX=0.917;exitY=0.833;exitDx=0;exitDy=0;exitPerimeter=0;entryX=0.008;entryY=0.65;entryDx=0;entryDy=0;entryPerimeter=0;" edge="1" parent="1" source="piJNGjqWp0yB-HxjVkC0-41" target="piJNGjqWp0yB-HxjVkC0-40">
          <mxGeometry width="50" height="50" relative="1" as="geometry">
            <mxPoint x="390" y="890" as="sourcePoint" />
            <mxPoint x="440" y="840" as="targetPoint" />
          </mxGeometry>
        </mxCell>
        <mxCell id="piJNGjqWp0yB-HxjVkC0-46" value="Xem theo chủng loại" style="ellipse;whiteSpace=wrap;html=1;" vertex="1" parent="1">
          <mxGeometry x="480" y="820" width="120" height="60" as="geometry" />
        </mxCell>
        <mxCell id="piJNGjqWp0yB-HxjVkC0-47" value="Xem theo người bán" style="ellipse;whiteSpace=wrap;html=1;" vertex="1" parent="1">
          <mxGeometry x="470" y="910" width="120" height="60" as="geometry" />
        </mxCell>
        <mxCell id="piJNGjqWp0yB-HxjVkC0-48" value="&amp;lt;&amp;lt;include&amp;gt;&amp;gt;" style="endArrow=none;dashed=1;html=1;dashPattern=1 1;strokeWidth=2;entryX=0;entryY=0.5;entryDx=0;entryDy=0;exitX=1;exitY=0.5;exitDx=0;exitDy=0;" edge="1" parent="1" source="piJNGjqWp0yB-HxjVkC0-30" target="piJNGjqWp0yB-HxjVkC0-46">
          <mxGeometry width="50" height="50" relative="1" as="geometry">
            <mxPoint x="390" y="890" as="sourcePoint" />
            <mxPoint x="440" y="840" as="targetPoint" />
            <mxPoint as="offset" />
          </mxGeometry>
        </mxCell>
        <mxCell id="piJNGjqWp0yB-HxjVkC0-50" value="&amp;lt;&amp;lt;include&amp;gt;&amp;gt;" style="endArrow=none;dashed=1;html=1;dashPattern=1 1;strokeWidth=2;entryX=0;entryY=0;entryDx=0;entryDy=0;exitX=0.942;exitY=0.767;exitDx=0;exitDy=0;exitPerimeter=0;" edge="1" parent="1" source="piJNGjqWp0yB-HxjVkC0-30" target="piJNGjqWp0yB-HxjVkC0-47">
          <mxGeometry width="50" height="50" relative="1" as="geometry">
            <mxPoint x="390" y="890" as="sourcePoint" />
            <mxPoint x="440" y="840" as="targetPoint" />
            <mxPoint as="offset" />
          </mxGeometry>
        </mxCell>
        <mxCell id="piJNGjqWp0yB-HxjVkC0-54" value="Quản lý danh mục" style="ellipse;whiteSpace=wrap;html=1;" vertex="1" parent="1">
          <mxGeometry x="590" y="760" width="120" height="60" as="geometry" />
        </mxCell>
        <mxCell id="piJNGjqWp0yB-HxjVkC0-55" value="Quản lý sản phẩm" style="ellipse;whiteSpace=wrap;html=1;" vertex="1" parent="1">
          <mxGeometry x="560" y="470" width="120" height="60" as="geometry" />
        </mxCell>
        <mxCell id="piJNGjqWp0yB-HxjVkC0-57" value="Quản lý người dùng" style="ellipse;whiteSpace=wrap;html=1;" vertex="1" parent="1">
          <mxGeometry x="510" y="610" width="120" height="60" as="geometry" />
        </mxCell>
        <mxCell id="piJNGjqWp0yB-HxjVkC0-58" value="" style="endArrow=none;html=1;dashed=1;dashPattern=1 1;entryX=1;entryY=0.65;entryDx=0;entryDy=0;entryPerimeter=0;exitX=0;exitY=0.3333333333333333;exitDx=0;exitDy=0;exitPerimeter=0;" edge="1" parent="1" source="piJNGjqWp0yB-HxjVkC0-5" target="piJNGjqWp0yB-HxjVkC0-55">
          <mxGeometry width="50" height="50" relative="1" as="geometry">
            <mxPoint x="450" y="690" as="sourcePoint" />
            <mxPoint x="500" y="640" as="targetPoint" />
          </mxGeometry>
        </mxCell>
        <mxCell id="piJNGjqWp0yB-HxjVkC0-60" value="" style="endArrow=none;html=1;dashed=1;dashPattern=1 1;exitX=1;exitY=0.5;exitDx=0;exitDy=0;" edge="1" parent="1" source="piJNGjqWp0yB-HxjVkC0-54" target="piJNGjqWp0yB-HxjVkC0-5">
          <mxGeometry width="50" height="50" relative="1" as="geometry">
            <mxPoint x="450" y="690" as="sourcePoint" />
            <mxPoint x="500" y="640" as="targetPoint" />
          </mxGeometry>
        </mxCell>
        <mxCell id="piJNGjqWp0yB-HxjVkC0-62" value="" style="swimlane;startSize=0;" vertex="1" parent="1">
          <mxGeometry x="130" y="280" width="620" height="850" as="geometry" />
        </mxCell>
        <mxCell id="piJNGjqWp0yB-HxjVkC0-63" value="Sơ đồ tổng quan hệ thống" style="text;html=1;strokeColor=none;fillColor=none;align=center;verticalAlign=middle;whiteSpace=wrap;rounded=0;" vertex="1" parent="piJNGjqWp0yB-HxjVkC0-62">
          <mxGeometry x="195" width="230" height="30" as="geometry" />
        </mxCell>
      </root>
    </mxGraphModel>
  </diagram>
</mxfile>
